<svg width="5" height="10" viewBox="0 0 5 10" fill="none" xmlns="http://www.w3.org/2000/svg">
<path fill-rule="evenodd" clip-rule="evenodd" d="M4.28938 9.08464C4.59562 9.08464 4.83329 8.84525 4.83329 8.54142C4.83329 8.3895 4.77387 8.2514 4.66875 8.14552L1.46927 4.9967L4.66875 1.85709C4.77387 1.75121 4.83329 1.6085 4.83329 1.46119C4.83329 1.15735 4.59562 0.917969 4.28938 0.917969C4.14312 0.917969 4.01514 0.973211 3.91459 1.07449L0.358595 4.57317C0.230616 4.69287 0.166626 4.84018 0.166626 5.0013C0.166626 5.16243 0.230616 5.30053 0.354024 5.42483L3.91002 8.92812C4.01514 9.02939 4.14312 9.08464 4.28938 9.08464Z" fill="#7B8E98"/>
</svg>
