<svg width="24" height="24" viewBox="0 0 24 24" fill="none" xmlns="http://www.w3.org/2000/svg">
<path fill-rule="evenodd" clip-rule="evenodd" d="M16.2676 22C17.5971 22 18.4897 21.1648 18.5548 19.8806L19.1963 6.82263H20.312C20.6932 6.82263 21 6.50831 21 6.1401C21 5.77189 20.6932 5.46655 20.312 5.46655H16.063V4.11944C16.063 2.82622 15.1612 2 13.7293 2H10.2521C8.82025 2 7.92769 2.82622 7.92769 4.11944V5.46655H3.68802C3.31612 5.46655 3 5.78087 3 6.1401C3 6.50831 3.31612 6.82263 3.68802 6.82263H4.81302L5.45455 19.8895C5.51963 21.1738 6.39359 22 7.74174 22H16.2676ZM14.5847 5.46655H9.41529V4.20925C9.41529 3.69735 9.79649 3.33812 10.3636 3.33812H13.6271C14.1942 3.33812 14.5847 3.69735 14.5847 4.20925V5.46655ZM16.1188 20.6439H7.8719C7.34194 20.6439 6.94215 20.2577 6.91426 19.7279L6.26343 6.82263H17.7087L17.095 19.7279C17.0671 20.2667 16.6767 20.6439 16.1188 20.6439ZM14.7614 19.0723C15.0682 19.0723 15.2913 18.8298 15.3006 18.4885L15.5795 9.0678C15.5888 8.73552 15.3564 8.48406 15.0403 8.48406C14.7521 8.48406 14.5103 8.7445 14.501 9.0678L14.2221 18.4796C14.2128 18.8119 14.4452 19.0723 14.7614 19.0723ZM9.24793 19.0723C9.56405 19.0723 9.79649 18.8119 9.78719 18.4796L9.49897 9.0678C9.48967 8.7445 9.24793 8.48406 8.95971 8.48406C8.64359 8.48406 8.41116 8.73552 8.42045 9.0678L8.69938 18.4885C8.70868 18.8298 8.93182 19.0723 9.24793 19.0723ZM12 19.0723C12.3068 19.0723 12.5671 18.8119 12.5671 18.4885V9.0678C12.5671 8.7445 12.3068 8.48406 12 8.48406C11.7025 8.48406 11.4421 8.7445 11.4421 9.0678V18.4885C11.4421 18.8119 11.7025 19.0723 12 19.0723Z" fill="#7B8E98"/>
</svg>
