<svg width="24" height="24" viewBox="0 0 24 24" fill="none" xmlns="http://www.w3.org/2000/svg">
<path fill-rule="evenodd" clip-rule="evenodd" d="M15.0676 19C15.5926 19 16 18.5896 16 18.0688C16 17.8083 15.8981 17.5716 15.7179 17.3901L10.2331 11.9921L15.7179 6.60992C15.8981 6.42841 16 6.18377 16 5.93123C16 5.41037 15.5926 5 15.0676 5C14.8168 5 14.5975 5.0947 14.4251 5.26832L8.32909 11.2661C8.1097 11.4713 8 11.7238 8 12C8 12.2762 8.1097 12.513 8.32125 12.726L14.4172 18.7317C14.5975 18.9053 14.8168 19 15.0676 19Z" fill="#1A1A1A"/>
</svg>
