<svg width="46" height="46" viewBox="0 0 46 46" fill="none" xmlns="http://www.w3.org/2000/svg">
<g clip-path="url(#clip0_6454_9001)">
<path d="M14.2517 17.6973C12.0213 17.6973 10.2067 19.5119 10.2067 21.7423C10.4289 27.1086 18.0753 27.107 18.2967 21.7423C18.2967 19.5119 16.4821 17.6973 14.2517 17.6973ZM14.2517 23.9895C13.0125 23.9895 12.0044 22.9814 12.0044 21.7423C12.1279 18.7611 16.3759 18.762 16.4989 21.7423C16.4989 22.9814 15.4909 23.9895 14.2517 23.9895Z" fill="#7B8E98"/>
<path d="M41.5288 35.2256H38.1861C44.9437 26.9582 40.24 14.1881 29.8599 12.1469V10.7757C32.3382 10.7757 34.3544 8.75948 34.3544 6.28125C34.3704 2.60389 30.0846 0.468852 27.1632 2.68614C24.2408 0.468673 19.9561 2.60425 19.9721 6.28125C19.9721 8.75948 21.9883 10.7756 24.4666 10.7756V12.0731C22.0811 12.4937 19.8312 13.5123 17.9317 15.0477C15.6673 13.7292 12.4308 13.8145 10.2446 15.2389C3.60122 13.5198 -1.45206 21.189 2.73604 26.6111C0.988957 28.9902 0 31.8929 0 34.926C0 38.0651 2.55383 40.6189 5.69293 40.6189H26.9667C30.6059 40.6189 33.9338 39.2601 36.4697 37.0233H41.5288C45.1071 37.1718 45.1044 42.2695 41.5288 42.4167H26.9667C25.774 42.4641 25.7749 44.1674 26.9667 44.2144H41.5288C47.4927 43.9669 47.4881 35.4709 41.5288 35.2256ZM25.9161 9.05297C25.6965 8.88263 25.4103 8.82366 25.1414 8.89288C23.4701 9.34547 21.7458 8.01682 21.7699 6.28125C21.7695 3.81173 24.8594 2.64578 26.4893 4.49812C26.8277 4.89974 27.4987 4.89974 27.8371 4.49812C29.4675 2.64587 32.5569 3.81173 32.5565 6.28134C32.5806 8.01664 30.8562 9.34592 29.185 8.89297C28.916 8.82384 28.6299 8.88281 28.4103 9.05306C28.1906 9.22331 28.062 9.4856 28.062 9.76345V11.8958C27.4697 11.8508 26.8608 11.8423 26.2643 11.8716V9.76336C26.2644 9.48551 26.1358 9.22322 25.9161 9.05297ZM3.0155 22.1918C3.01478 19.2104 5.44915 16.7858 8.4305 16.7985C7.04037 18.3963 6.33501 20.7455 6.70643 22.9439C5.67711 23.5807 4.74586 24.3388 3.92742 25.193C3.33542 24.3094 3.0155 23.2672 3.0155 22.1918ZM5.69293 38.8211C3.54513 38.8211 1.79778 37.0738 1.79778 34.926C1.79778 30.8429 3.8547 27.0298 7.22724 24.7477C7.34644 25.0266 7.48235 25.2988 7.63471 25.5625C7.88289 25.9924 8.43256 26.1397 8.86259 25.8915C9.29253 25.6433 9.43986 25.0935 9.19159 24.6636C6.93448 20.8347 9.80391 15.8616 14.2517 15.8994C19.4182 15.8876 22.0497 22.2374 18.3831 25.8737C17.5728 26.7494 18.7797 27.9549 19.6544 27.1449C22.7314 24.1869 22.5637 18.9194 19.4482 16.1457C27.6397 9.97145 39.5969 15.9645 39.5511 26.2368C39.5511 33.1757 33.9057 38.8211 26.9667 38.8211H5.69293Z" fill="#7B8E98"/>
<path d="M6.06185 30.1813H6.06122C5.56476 30.1813 5.1626 30.5838 5.1626 31.0802C5.21006 32.2724 6.91354 32.2724 6.96073 31.0802C6.96073 30.5838 6.55821 30.1813 6.06185 30.1813Z" fill="#7B8E98"/>
<path d="M29.86 7.18016C31.0527 7.1327 31.0518 5.4294 29.86 5.38239H29.8594C28.6668 5.43003 28.6683 7.13324 29.86 7.18016Z" fill="#7B8E98"/>
<path d="M24.4669 5.38239H24.4662C23.9698 5.38239 23.5676 5.78482 23.5676 6.28127C23.6151 7.47347 25.3186 7.47347 25.3658 6.28127C25.3658 5.78482 24.9633 5.38239 24.4669 5.38239Z" fill="#7B8E98"/>
</g>
<defs>
<clipPath id="clip0_6454_9001">
<rect width="46" height="46" fill="white"/>
</clipPath>
</defs>
</svg>
