<svg width="46" height="46" viewBox="0 0 46 46" fill="none" xmlns="http://www.w3.org/2000/svg">
<g clip-path="url(#clip0_6454_18277)">
<path d="M28.6739 16.7482C28.6908 16.7525 30.3838 17.1894 32.0336 18.3942M28.6739 16.7482L29.0958 45.4731C27.4674 43.8429 25.3023 42.9455 22.9997 42.9455C20.6971 42.9455 18.5321 43.8429 16.904 45.4731C16.2025 46.1753 15.0647 46.1757 14.3628 45.4745C13.6605 44.7733 13.6598 43.6355 14.3614 42.9332C15.1187 42.1752 15.9589 41.5294 16.8602 41.0033C16.8524 38.3389 16.7679 37.1748 16.6657 36.41C16.5913 36.2855 16.531 36.15 16.4874 36.0047C15.8052 33.7309 13.797 33.3606 11.035 33.0858C10.3851 33.0212 9.77089 32.9602 9.22867 32.8412C9.01459 32.7945 8.70996 32.7496 8.38779 32.7022M28.6739 16.7482C27.7099 16.5127 27.1224 15.5413 27.3579 14.5772C27.5934 13.6132 28.5687 13.0236 29.5331 13.2587C29.6257 13.2812 31.8262 13.8304 34.0337 15.4058M28.6739 16.7482L34.0337 15.4058M32.0336 18.3942C34.0793 19.8882 35.1427 21.8743 35.1947 24.2965M32.0336 18.3942L32.2695 18.0712C34.4105 19.6348 35.5397 21.7344 35.5946 24.2876M32.0336 18.3942L32.2695 18.0712C30.5599 16.8227 28.8102 16.37 28.771 16.3602L28.7689 16.3597C28.0203 16.1768 27.5632 15.4225 27.7464 14.6722C27.9293 13.9237 28.6874 13.4642 29.4383 13.6473L29.4388 13.6474C29.5092 13.6645 31.6534 14.1985 33.8013 15.7314M35.1947 24.2965C35.1951 24.3165 35.1969 24.336 35.1986 24.3554C35.1994 24.365 35.2003 24.3746 35.201 24.3843C34.5861 27.2024 33.8961 29.0292 33.6606 29.6107C32.9523 29.6938 32.1898 29.8106 31.4209 30.0157C31.4044 30.0901 31.3873 30.1639 31.3695 30.2372L30.9808 30.1431L30.8613 29.7613C30.934 29.7386 31.0068 29.7167 31.0794 29.6956C31.3721 28.2175 31.3553 26.5712 30.4382 24.7851M35.1947 24.2965L35.5945 24.2871C35.5945 24.2873 35.5946 24.2874 35.5946 24.2876M35.1947 24.2965L35.5946 24.288C35.5946 24.2878 35.5946 24.2877 35.5946 24.2876M30.4382 24.7851C29.9848 23.9021 28.9017 23.5539 28.0187 24.0074C27.1361 24.4604 26.7879 25.5438 27.2414 26.4265C27.9952 27.8949 27.6271 29.099 26.9118 31.1008M30.4382 24.7851L30.0824 24.9678C30.0824 24.9678 30.0824 24.9678 30.0824 24.9678M30.4382 24.7851L30.0824 24.9678M26.9118 31.1008L26.909 31.1088C26.5445 32.1297 26.1677 33.185 26.0183 34.364C25.9839 34.6325 25.9449 34.8585 25.9035 35.0975M26.9118 31.1008L27.2885 31.2354C27.2885 31.2354 27.2885 31.2353 27.2885 31.2353M26.9118 31.1008L27.2885 31.2353M25.9035 35.0975C25.7629 35.91 25.6185 36.7455 25.5658 39.2125C25.591 39.2176 25.6161 39.2229 25.6412 39.2282L25.5582 39.6195L25.1582 39.6131C25.1586 39.5892 25.159 39.5654 25.1594 39.5418C24.4536 39.4163 23.7317 39.3517 23.0001 39.3517C22.2682 39.3517 21.5462 39.4163 20.8404 39.5418C20.8408 39.5654 20.8412 39.5892 20.8416 39.6131L20.4416 39.6195L20.3586 39.2282C20.3837 39.2229 20.4089 39.2176 20.434 39.2125C20.3814 36.7455 20.2369 35.91 20.0963 35.0975M25.9035 35.0975L26.2976 35.1658M25.9035 35.0975L26.2977 35.1657L26.2976 35.1658M20.0963 35.0975C20.0549 34.8585 20.0159 34.6325 19.9815 34.3636C19.84 33.2469 19.5074 32.2075 19.1857 31.2021L19.1842 31.1973M20.0963 35.0975L19.7022 35.1658M20.0963 35.0975L19.7022 35.1657L19.7022 35.1658M19.1842 31.1973C18.5268 29.1443 18.1618 27.8184 18.9083 26.4823C19.3926 25.6161 19.0827 24.5215 18.2166 24.0372M19.1842 31.1973L18.8032 31.3192M19.1842 31.1973L18.8032 31.3193C18.8032 31.3193 18.8032 31.3193 18.8032 31.3192M18.2166 24.0372C17.3501 23.5532 16.2555 23.8631 15.7711 24.7293C14.7947 26.4767 14.7752 28.1816 15.0657 29.7394C15.1382 29.7615 15.2108 29.7845 15.2833 29.8084L15.1584 30.1883L14.7682 30.2763C14.7516 30.203 14.7356 30.1292 14.7202 30.055C13.9032 29.8253 13.0902 29.6988 12.3381 29.6103C12.1033 29.0355 11.4127 27.2217 10.7974 24.4043C10.7982 24.3941 10.7991 24.3839 10.8001 24.3738C10.8024 24.3482 10.8047 24.3226 10.8052 24.2965C10.8571 21.8743 11.9205 19.8882 13.9665 18.3942M18.2166 24.0372L18.0214 24.3863C18.0214 24.3863 18.0215 24.3864 18.0215 24.3864M18.2166 24.0372L18.0215 24.3864M13.9665 18.3942C15.6101 17.1936 17.2971 16.7556 17.3259 16.7482C18.2861 16.5099 18.8736 15.5399 18.6384 14.5779C18.4033 13.6142 17.4312 13.0232 16.4667 13.2587C16.3741 13.2812 14.174 13.8304 11.9661 15.4058M13.9665 18.3942L13.7307 18.0712C13.7306 18.0712 13.7306 18.0712 13.7306 18.0712M13.9665 18.3942L13.7306 18.0712M11.9661 15.4058C11.3077 15.8758 10.7152 16.3877 10.1897 16.9378C10.1972 17.0673 10.2052 17.196 10.2136 17.3239L9.81441 17.3501L9.51207 17.0882C9.59957 16.9872 9.68908 16.8874 9.78061 16.7887C9.73937 16.0355 9.71312 15.2548 9.70527 14.4481C9.7014 14.0389 9.70386 13.6279 9.71018 13.2155C12.0277 10.1153 15.0167 9.04637 15.3869 8.92363L15.2593 8.54974C15.2578 8.54623 15.2577 8.54625 15.2577 8.54626L15.2573 8.54642L15.2567 8.54668L15.2558 8.54707L15.2597 8.54525C15.2612 8.54454 15.2631 8.54366 15.2653 8.54259M11.9661 15.4058L12.1984 15.7314M11.9661 15.4058L12.1985 15.7314C12.1985 15.7314 12.1985 15.7314 12.1984 15.7314M15.2653 8.54259C15.2921 8.53371 15.3083 8.52876 15.3128 8.52745L15.3337 8.59942L15.3149 8.52671L15.3244 8.52425L15.4298 8.90727C15.5748 8.83903 16.746 8.23606 16.4667 6.68921C16.1692 5.04114 14.4175 5.46158 14.4175 5.46158M15.2653 8.54259C15.2706 8.53998 15.2781 8.53629 15.2873 8.53145C15.3134 8.5178 15.3535 8.49538 15.4022 8.46347C15.5004 8.39916 15.6288 8.2994 15.7488 8.15931C15.9797 7.88994 16.1981 7.45297 16.0731 6.76027C16.0122 6.42295 15.8839 6.22134 15.7481 6.09452C15.6086 5.96428 15.4343 5.88832 15.2475 5.84864C15.0594 5.80871 14.8724 5.80866 14.7281 5.82033C14.6571 5.82608 14.5993 5.83442 14.5607 5.84102C14.5414 5.84431 14.5271 5.84713 14.5185 5.84892L14.5169 5.84925M15.2653 8.54259C14.8435 8.68192 11.7726 9.78839 9.3898 12.9761L9.31221 13.0798L9.31023 13.2094C9.30387 13.6242 9.30138 14.0386 9.30528 14.4519L9.30528 14.452C9.31519 15.4687 9.35409 16.4444 9.41527 17.3763L9.47908 18.3482L10.1168 17.612C10.7084 16.929 11.4026 16.2995 12.1984 15.7314M14.4175 5.46158C14.3015 5.49502 12.5763 6.00982 10.5116 7.47448C10.4964 7.59814 10.4816 7.72172 10.4672 7.84522L10.0699 7.79893L9.82784 7.48049C9.93131 7.40183 10.0342 7.32549 10.1364 7.2514C10.3484 5.57182 10.6377 3.87763 11.0048 2.1763M14.4175 5.46158C14.5109 5.85053 14.5107 5.85057 14.5105 5.85061L14.5102 5.85068L14.5169 5.84925M14.4175 5.46158L14.5283 5.84594C14.5258 5.84666 14.522 5.84776 14.5169 5.84925M11.0048 2.1763C11.214 1.20627 10.5974 0.250271 9.62735 0.0407516M11.0048 2.1763L10.6138 2.09192C10.6138 2.09194 10.6138 2.09197 10.6138 2.09199L11.0048 2.1763ZM9.62735 0.0407516C8.65802 -0.168417 7.70132 0.448208 7.49215 1.41824C6.5358 5.84903 6.07149 10.2444 6.11185 14.4821C6.17285 20.9153 7.32067 25.8222 8.18722 28.6298C8.25301 28.6411 8.31912 28.652 8.38551 28.6626L8.32216 29.0576L7.94145 29.1803C7.92044 29.1151 7.89921 29.0486 7.87778 28.9808C5.69867 28.5719 3.59376 27.6183 3.59376 22.9103C3.59376 21.9178 2.78903 21.1134 1.79688 21.1134C0.804385 21.1134 0 21.9178 0 22.9103C0 26.5332 1.06409 29.1955 3.16244 30.8232M9.62735 0.0407516L9.5429 0.431735C9.54293 0.431741 9.54295 0.431747 9.54298 0.431752L9.62735 0.0407516ZM3.16244 30.8232C4.92856 32.1928 7.00976 32.4993 8.38725 32.7021L8.38779 32.7022M3.16244 30.8232L3.40761 30.5072C3.4076 30.5072 3.40758 30.5071 3.40756 30.5071L3.16244 30.8232ZM8.38779 32.7022L8.44606 32.3065L8.44598 32.3065L8.38779 32.7022ZM14.5169 5.84925L36.4567 0.431771C35.7027 0.594737 35.2234 1.33792 35.386 2.09199M12.1984 15.7314C14.3467 14.1985 16.4906 13.6645 16.561 13.6474L16.5616 13.6473C17.3114 13.4642 18.0671 13.9237 18.2498 14.6728L18.2499 14.6729C18.4326 15.4207 17.976 16.1748 17.2295 16.36L17.2266 16.3607C17.1778 16.3733 15.434 16.8269 13.7306 18.0712M13.7306 18.0712C11.5892 19.6349 10.46 21.7346 10.4052 24.288L10.4052 24.2888C10.405 24.301 10.4043 24.3082 10.4029 24.3232C10.4019 24.3341 10.4005 24.3491 10.3987 24.373L10.394 24.4319L10.4066 24.4896C11.0275 27.3328 11.7257 29.1687 11.9678 29.7616L12.057 29.98L12.2914 30.0076C13.1668 30.1105 14.1077 30.2639 15.0334 30.5683L15.7038 30.7888L15.5486 30.1004C15.1825 28.4767 15.1153 26.7231 16.1203 24.9245M16.1203 24.9245C16.4968 24.2511 17.3479 24.0101 18.0215 24.3864M16.1203 24.9245L15.7718 24.7297L16.1203 24.9244C16.1203 24.9244 16.1203 24.9245 16.1203 24.9245ZM18.0215 24.3864C18.6949 24.763 18.9356 25.6139 18.5592 26.2871L18.5591 26.2872C17.7145 27.799 18.1569 29.3005 18.8032 31.3192M18.8032 31.3192C19.127 32.3311 19.4483 33.3377 19.5847 34.4139L19.5848 34.4144C19.6204 34.693 19.6608 34.9269 19.7022 35.1658M19.7022 35.1658L19.7037 35.1747C19.8476 36.0061 19.9972 36.8704 20.0417 39.626L20.0495 40.1116L20.5247 40.0108C21.3292 39.84 22.1577 39.7517 23.0001 39.7517C23.8421 39.7517 24.6706 39.84 25.4751 40.0108L25.9503 40.1116L25.9581 39.626C26.0026 36.8704 26.1522 36.0061 26.2961 35.1747L26.2976 35.1658M26.2976 35.1658C26.339 34.9269 26.3794 34.693 26.415 34.4148L26.4151 34.4143C26.5587 33.282 26.9214 32.2638 27.2885 31.2353M27.2885 31.2353C27.9976 29.2507 28.4397 27.8849 27.5972 26.2438L27.5972 26.2437C27.2447 25.5575 27.5154 24.7154 28.2014 24.3632L28.2014 24.3632C28.8879 24.0107 29.7298 24.2813 30.0824 24.9678M30.0824 24.9678C31.0362 26.8255 30.9625 28.5191 30.592 30.0489L30.4256 30.7359L31.1002 30.5248C31.9823 30.2488 32.8745 30.1057 33.7073 30.008L33.9425 29.9803L34.0314 29.7608C34.274 29.1616 34.9714 27.3131 35.5918 24.4695L35.6041 24.4131L35.5999 24.3554C35.5978 24.3262 35.5966 24.3139 35.5958 24.3062C35.5951 24.2992 35.5948 24.2962 35.5946 24.2876M33.8013 15.7314C34.5969 16.2995 35.2908 16.9287 35.8825 17.6111L36.5194 18.3457L36.5838 17.3756C36.6457 16.4431 36.6846 15.4676 36.6945 14.452V14.4519C36.6984 14.0386 36.6959 13.6243 36.6899 13.2098L36.6881 13.08L36.6104 12.976C34.0858 9.59933 30.7876 8.55676 30.6959 8.52997M33.8013 15.7314L34.0337 15.4058M33.8013 15.7314C33.8013 15.7314 33.8013 15.7314 33.8013 15.7314L34.0337 15.4058M30.6959 8.52997C29.9546 8.31579 29.5274 7.54118 29.7415 6.80028L29.7415 6.80024C29.9557 6.05891 30.7303 5.63171 31.4712 5.84585L31.4715 5.84594C31.5662 5.8732 33.4848 6.4427 35.6878 8.11737L36.436 8.68606L36.3272 7.75264C36.1092 5.88101 35.7957 3.99073 35.386 2.09199M30.6959 8.52997C30.6957 8.52991 30.6955 8.52985 30.6953 8.5298L30.5849 8.91426M30.6959 8.52997L30.5849 8.91426M35.386 2.09199C35.386 2.09197 35.386 2.09194 35.386 2.09192L34.995 2.1763L35.386 2.09199ZM30.5849 8.91426C30.6179 8.92373 33.8323 9.92816 36.29 13.2155L30.5849 8.91426ZM37.5542 32.3098C37.2366 32.3547 36.9152 32.4001 36.6855 32.4505L36.4569 0.431735C37.2113 0.269215 37.9541 0.748518 38.117 1.50261C39.0672 5.90643 39.528 10.2722 39.488 14.4783C39.4242 21.2098 38.162 26.2539 37.2945 28.9421L37.0955 29.5589L37.7361 29.4603C38.7412 29.3055 39.9591 29.0532 40.8973 28.3232C42.2257 27.2901 42.806 25.4631 42.806 22.9103C42.806 22.1391 43.4313 21.5137 44.2029 21.5137C44.9746 21.5137 45.5998 22.1391 45.5998 22.9103C45.5998 26.4796 44.5662 29.009 42.6125 30.5285C40.9442 31.8258 38.9642 32.1112 37.5801 32.3061L37.5799 32.3062L37.5542 32.3098Z" fill="#7B8E98" stroke="white" stroke-width="0.8"/>
</g>
<defs>
<clipPath id="clip0_6454_18277">
<rect width="46" height="46" fill="white"/>
</clipPath>
</defs>
</svg>
