<svg width="180" height="68" viewBox="0 0 180 68" fill="none" xmlns="http://www.w3.org/2000/svg">
<path d="M23.2136 35.1166L17.8565 30.9502M17.8565 30.9502C17.8565 30.9502 12.2964 25.82 10.1189 22.0221M17.8565 30.9502C14.4837 31.7438 7.02381 32.3787 4.16682 28.5694M10.7143 12.4988C15.476 8.92761 15.4759 1.18994 15.4759 1.18994M10.7143 12.4988C9.52367 13.6893 9.52306 19.6413 10.1189 22.0221M10.7143 12.4988C9.52379 12.6972 7.02381 12.0227 6.54764 7.7372M10.1189 22.0221C8.33327 22.2205 4.04778 21.665 1.1908 17.8557" stroke="#1A1A1A" stroke-width="2.38082" stroke-linecap="round"/>
<path d="M42.8546 34.5214L48.646 30.4281M48.646 30.4281C48.646 30.4281 54.6569 25.3879 57.0109 21.6567M48.646 30.4281C52.2922 31.2078 60.3569 31.8315 63.4455 28.089M56.3673 12.3004C51.2195 8.79186 51.2196 1.18994 51.2196 1.18994M56.3673 12.3004C57.6544 13.47 57.6551 19.3176 57.0109 21.6567M56.3673 12.3004C57.6543 12.4954 60.3569 11.8326 60.8717 7.62234M57.0109 21.6567C58.9413 21.8516 63.5742 21.3058 66.6628 17.5633" stroke="#1A1A1A" stroke-width="2.38082" stroke-linecap="round"/>
<path d="M48.8072 42.8538C48.8072 37.5943 41.6122 33.3306 32.7367 33.3306C23.8612 33.3306 16.6661 37.5943 16.6661 42.8538" stroke="#1A1A1A" stroke-width="2.38082" stroke-linecap="round"/>
<path d="M28.5701 46.4257C28.5701 45.1109 26.9712 44.0449 24.9988 44.0449C23.0265 44.0449 21.4276 45.1109 21.4276 46.4257" stroke="#1A1A1A" stroke-width="2.38082" stroke-linecap="round"/>
<path d="M45.2355 46.4257C45.2355 45.1109 43.6366 44.0449 41.6642 44.0449C39.6919 44.0449 38.093 45.1109 38.093 46.4257" stroke="#1A1A1A" stroke-width="2.38082" stroke-linecap="round"/>
<path d="M23.8086 63.0923C23.8086 65.0647 25.9405 66.6636 28.5703 66.6636C31.2 66.6636 33.3319 65.0647 33.3319 63.0923L33.3319 59.5211" stroke="#1A1A1A" stroke-width="2.38082" stroke-linecap="round"/>
<path d="M42.8552 63.0923C42.8552 65.0647 40.7233 66.6636 38.0936 66.6636C35.4638 66.6636 33.3319 65.0647 33.3319 63.0923L33.3319 59.5211" stroke="#1A1A1A" stroke-width="2.38082" stroke-linecap="round"/>
<ellipse cx="33.3315" cy="56.5449" rx="3.57123" ry="2.97603" stroke="#1A1A1A" stroke-width="2.38082" stroke-linecap="round"/>
<path d="M86.707 47.8909C88.2016 47.8909 89.0649 47.0019 89.0649 45.4299V40.1215H96.4735V45.4299C96.4735 47.0019 97.3367 47.8909 98.8313 47.8909C100.326 47.8909 101.189 47.0019 101.189 45.4299V31.1926C101.189 29.6207 100.326 28.7316 98.8313 28.7316C97.3367 28.7316 96.4735 29.6207 96.4735 31.1926V36.3077H89.0649V31.1926C89.0649 29.6207 88.2016 28.7316 86.707 28.7316C85.2124 28.7316 84.3363 29.6207 84.3363 31.1926V45.4299C84.3363 47.0019 85.2124 47.8909 86.707 47.8909ZM110.466 47.9424C114.885 47.9424 117.643 45.2753 117.643 40.5854C117.643 35.9856 114.847 33.2412 110.466 33.2412C106.111 33.2412 103.289 35.9985 103.289 40.5854C103.289 45.2624 106.047 47.9424 110.466 47.9424ZM110.466 44.5925C108.894 44.5925 107.928 43.1623 107.928 40.5983C107.928 38.0729 108.92 36.5912 110.466 36.5912C112.025 36.5912 113.017 38.0729 113.017 40.5983C113.017 43.1623 112.025 44.5925 110.466 44.5925ZM121.701 47.9038C123.093 47.9038 123.982 47.0792 123.982 45.533V40.0571C123.982 38.4594 124.433 37.7637 126.005 37.725C126.855 37.6864 127.499 37.4931 127.925 37.1066C128.35 36.7329 128.569 36.1918 128.569 35.4702C128.569 34.6456 128.337 34.0658 127.886 33.7308C127.59 33.486 127.177 33.3701 126.662 33.3701C125.257 33.3701 124.227 34.3751 123.879 36.2691H123.789V35.5733C123.789 34.0916 122.912 33.2799 121.637 33.2799C120.31 33.2799 119.408 34.0916 119.408 35.5604V45.533C119.408 47.0792 120.297 47.9038 121.701 47.9038ZM132.473 47.6074H137.652C143.257 47.6074 146.568 44.1415 146.568 38.2017C146.568 32.2749 143.27 29.0151 137.652 29.0151H132.473C130.978 29.0151 130.102 29.917 130.102 31.4889V45.1336C130.102 46.7055 130.978 47.6074 132.473 47.6074ZM134.831 43.7936V32.8289H137.034C140.023 32.8289 141.762 34.7229 141.762 38.2146C141.762 41.9254 140.113 43.7936 137.034 43.7936H134.831ZM155.304 47.9424C159.723 47.9424 162.481 45.2753 162.481 40.5854C162.481 35.9856 159.685 33.2412 155.304 33.2412C150.949 33.2412 148.127 35.9985 148.127 40.5854C148.127 45.2624 150.885 47.9424 155.304 47.9424ZM155.304 44.5925C153.732 44.5925 152.766 43.1623 152.766 40.5983C152.766 38.0729 153.758 36.5912 155.304 36.5912C156.863 36.5912 157.855 38.0729 157.855 40.5983C157.855 43.1623 156.863 44.5925 155.304 44.5925ZM170.817 52.8901C175.61 52.8901 178.316 50.7255 178.316 46.9245V35.5733C178.316 34.0014 177.375 33.2799 176.061 33.2799C174.747 33.2799 173.755 34.0014 173.755 35.5733V36.05H173.664C173.033 34.4781 171.5 33.3701 169.464 33.3701C165.882 33.3701 163.821 35.8697 163.821 40.2633C163.821 44.5151 165.947 47.1049 169.4 47.1049C171.461 47.1049 173.085 46.0871 173.639 44.6053H173.729V46.8472C173.729 48.432 172.634 49.437 170.753 49.437C169.554 49.4241 168.575 48.883 167.609 48.0713C167.158 47.6847 166.668 47.5172 166.114 47.5172C165.006 47.5172 164.31 48.213 164.31 49.1149C164.31 49.4886 164.388 49.8751 164.607 50.2616C165.47 51.7176 167.686 52.8772 170.817 52.8901ZM171.126 43.8709C169.477 43.8709 168.498 42.6082 168.498 40.3406C168.498 38.0858 169.49 36.6943 171.126 36.6943C172.75 36.6943 173.768 38.0987 173.768 40.3406C173.768 42.6082 172.763 43.8709 171.126 43.8709Z" fill="#1A1A1A"/>
</svg>
