<svg width="32" height="32" viewBox="0 0 32 32" fill="none" xmlns="http://www.w3.org/2000/svg">
<path fill-rule="evenodd" clip-rule="evenodd" d="M16.5702 2.66666C20.4173 2.66666 23.5674 5.74667 23.7187 9.56343L23.7244 9.85103L23.7236 10.7135L24.7308 10.7146C25.6567 10.7146 26.4308 11.376 26.6002 12.2482L26.6258 12.4253L26.6346 12.6072V16.1316C26.6346 17.1133 25.8777 17.9235 24.9138 18.0154L24.7308 18.0241L22.6777 18.024L22.5361 18.2363C22.0685 18.8991 21.4835 19.5225 20.8161 20.0824L20.4757 20.3569L20.237 20.5342L20.2396 20.5972C20.3155 21.5313 20.95 22.2555 21.8276 22.4129L22.0063 22.4368L22.1909 22.4448C26.9028 22.4448 29.3333 24.0481 29.3333 28.2823C29.3333 28.8628 28.86 29.3333 28.276 29.3333C27.6923 29.3333 27.2189 28.8627 27.2189 28.2823C27.2189 25.3155 25.8412 24.5465 22.1909 24.5465C21.6261 24.5465 21.0769 24.4311 20.57 24.2114L20.4688 24.1626L16.3611 27.1211C16.0751 27.3361 15.7028 27.3893 15.3733 27.274L15.2351 27.2142L15.1044 27.1336L11.1785 24.3066L11.0291 24.3606C10.8335 24.4219 10.6331 24.4684 10.4293 24.4995L10.1212 24.5347L9.80899 24.5465C6.15884 24.5465 4.78113 25.3155 4.78113 28.2823C4.78113 28.8627 4.30775 29.3333 3.724 29.3333C3.14015 29.3333 2.66666 28.8628 2.66666 28.2823C2.66666 24.0482 5.09727 22.4448 9.80899 22.4448C10.772 22.4448 11.586 21.7421 11.7413 20.8179L11.7449 20.7869L11.5128 20.6297C10.6696 20.0301 9.93539 19.329 9.36919 18.564L9.137 18.2323L9.00775 18.024L7.26918 18.0241C6.34333 18.0241 5.56916 17.3628 5.39982 16.4906L5.37415 16.3135L5.36541 16.1316V12.6072C5.36541 11.6254 6.12223 10.8152 7.08615 10.7233L7.26918 10.7146L8.27539 10.7135L8.27575 9.85083C8.27575 6.09729 11.1769 2.98811 14.8509 2.69005L15.1425 2.67239L15.4297 2.66666H16.5702ZM18.3883 21.9474L18.3007 21.693L18.2861 21.7015C17.3745 22.13 16.5174 22.3742 15.9025 22.3742C15.3829 22.3742 14.7194 22.2282 14.0052 21.9622L13.6549 21.8239L13.5627 22.068C13.4525 22.3272 13.3153 22.5742 13.1537 22.8049L12.991 23.0194L15.7229 24.9862L18.8157 22.7602L18.801 22.7388C18.6345 22.4907 18.4961 22.2255 18.3883 21.9474ZM15.8638 9.72229L15.7307 9.825C14.2177 10.9206 12.3734 11.4801 10.4808 11.3877L10.3882 11.38L10.3781 16.007C10.653 16.8799 11.2836 17.7268 12.1648 18.4737L12.4365 18.6947C13.6415 19.6356 15.0983 20.2727 15.9024 20.2727C16.7256 20.2727 18.3699 19.4532 19.648 18.3158L19.9021 18.0809L19.9577 18.024H18.2374L18.2079 18.0599C17.9547 18.3249 17.6157 18.4959 17.2456 18.5394L17.0582 18.5503C16.1822 18.5503 15.472 17.8443 15.472 16.9735C15.472 16.1024 16.1821 15.3963 17.0582 15.3963C17.5003 15.3963 17.9125 15.5776 18.2079 15.8869L18.2388 15.9224H21.6095V11.3591L21.5145 11.3705C19.5519 11.5276 17.6021 10.9836 16.0125 9.83606L15.8638 9.72229ZM8.67385 13.6134C8.67385 13.1732 8.31706 12.8164 7.87694 12.8164V12.8164C7.43682 12.8164 7.08003 13.1732 7.08003 13.6134V15.1242C7.08003 15.5643 7.43682 15.9211 7.87694 15.9211V15.9211C8.31706 15.9211 8.67385 15.5643 8.67385 15.1242V13.6134ZM24.917 13.612C24.917 13.1726 24.5608 12.8164 24.1214 12.8164V12.8164C23.682 12.8164 23.3258 13.1726 23.3258 13.612V15.1255C23.3258 15.5649 23.682 15.9211 24.1214 15.9211V15.9211C24.5608 15.9211 24.917 15.5649 24.917 15.1255V13.612ZM18.8407 5.31478L18.8145 5.42039C18.5401 6.39821 18.0864 7.30836 17.4789 8.11281L17.3852 8.22823L17.4358 8.26447C18.6268 9.05798 20.0607 9.41294 21.4898 9.26596L21.5739 9.25482L21.5705 9.21592C21.3713 7.61996 20.427 6.21881 19.0584 5.43196L18.8407 5.31478ZM16.5702 4.76864H15.4298C12.9419 4.76864 10.8596 6.59998 10.4595 9.00938L10.4211 9.28103L10.4521 9.28421C13.2915 9.48069 15.8933 7.69438 16.7299 5.027L16.8017 4.77401L16.5702 4.76864Z" fill="#7B8E98"/>
<path d="M23.7187 9.56343L23.9687 9.55848L23.9685 9.55352L23.7187 9.56343ZM23.7244 9.85103L23.9745 9.85128L23.9744 9.84608L23.7244 9.85103ZM23.7236 10.7135L23.4736 10.7133L23.4734 10.9632L23.7233 10.9635L23.7236 10.7135ZM24.7308 10.7146L24.7305 10.9646H24.7308V10.7146ZM26.6002 12.2482L26.8479 12.2123L26.8456 12.2005L26.6002 12.2482ZM26.6258 12.4253L26.8755 12.4133L26.875 12.4013L26.8732 12.3894L26.6258 12.4253ZM26.6346 12.6072H26.8849L26.8843 12.5953L26.6346 12.6072ZM24.9138 18.0154L24.9257 18.2654L24.9375 18.2643L24.9138 18.0154ZM24.7308 18.0241L24.7308 18.2744L24.7426 18.2738L24.7308 18.0241ZM22.6777 18.024L22.6777 17.774L22.544 17.774L22.4698 17.8852L22.6777 18.024ZM22.5361 18.2363L22.7405 18.3804L22.7441 18.375L22.5361 18.2363ZM20.8161 20.0824L20.9731 20.277L20.9768 20.2739L20.8161 20.0824ZM20.4757 20.3569L20.6249 20.5578L20.6327 20.5515L20.4757 20.3569ZM20.237 20.5342L20.0879 20.3334L19.9816 20.4124L19.9872 20.5447L20.237 20.5342ZM20.2396 20.5972L19.9897 20.6078L19.9904 20.6175L20.2396 20.5972ZM21.8276 22.4129L21.7834 22.6592L21.7946 22.6607L21.8276 22.4129ZM22.0063 22.4368L21.9732 22.6846L21.9843 22.686L21.9954 22.6865L22.0063 22.4368ZM22.1909 22.4448L22.1799 22.6948H22.1909V22.4448ZM20.57 24.2114L20.4612 24.4367L20.4706 24.4408L20.57 24.2114ZM20.4688 24.1626L20.5775 23.9374L20.4435 23.8727L20.3227 23.9597L20.4688 24.1626ZM16.3611 27.1211L16.215 26.9182L16.2109 26.9213L16.3611 27.1211ZM15.3733 27.274L15.2741 27.5034L15.2823 27.507L15.2907 27.5099L15.3733 27.274ZM15.2351 27.2142L15.104 27.427L15.1193 27.4365L15.1359 27.4436L15.2351 27.2142ZM15.1044 27.1336L14.9583 27.3365L14.9656 27.3418L14.9733 27.3465L15.1044 27.1336ZM11.1785 24.3066L11.3246 24.1037L11.2176 24.0266L11.0935 24.0715L11.1785 24.3066ZM11.0291 24.3606L11.1039 24.5994L11.1141 24.5957L11.0291 24.3606ZM10.4293 24.4995L10.4576 24.7481L10.467 24.7467L10.4293 24.4995ZM10.1212 24.5347L10.1306 24.7845L10.1401 24.7842L10.1495 24.7831L10.1212 24.5347ZM9.80899 24.5465V24.7967L9.81844 24.7963L9.80899 24.5465ZM11.7413 20.8179L11.9881 20.8593L11.9896 20.8471L11.7413 20.8179ZM11.7449 20.7869L11.9932 20.8161L12.011 20.6651L11.8851 20.5799L11.7449 20.7869ZM11.5128 20.6297L11.3679 20.8335L11.3726 20.8367L11.5128 20.6297ZM9.36919 18.564L9.16432 18.7074L9.16825 18.7127L9.36919 18.564ZM9.137 18.2323L8.92424 18.3643L8.9322 18.3757L9.137 18.2323ZM9.00775 18.024L9.22019 17.8922L9.14685 17.774L9.00774 17.774L9.00775 18.024ZM7.26918 18.0241L7.26918 18.2741L7.2692 18.2741L7.26918 18.0241ZM5.39982 16.4906L5.15212 16.5265L5.1544 16.5383L5.39982 16.4906ZM5.37415 16.3135L5.12444 16.3255L5.12501 16.3375L5.12673 16.3494L5.37415 16.3135ZM5.36541 16.1316H5.11512L5.1157 16.1436L5.36541 16.1316ZM7.08615 10.7233L7.07429 10.4733L7.06242 10.4744L7.08615 10.7233ZM7.26918 10.7146L7.2689 10.4644L7.25734 10.4649L7.26918 10.7146ZM8.27539 10.7135L8.27566 10.9635L8.52528 10.9632L8.52539 10.7136L8.27539 10.7135ZM8.27575 9.85083L8.52575 9.85093V9.85083H8.27575ZM14.8509 2.69005L14.8358 2.44045L14.8307 2.44086L14.8509 2.69005ZM15.1425 2.67239L15.1375 2.42224L15.1274 2.42285L15.1425 2.67239ZM15.4297 2.66666V2.41661L15.4247 2.41671L15.4297 2.66666ZM18.3883 21.9474L18.1518 22.0289L18.1552 22.0378L18.3883 21.9474ZM18.3007 21.693L18.537 21.6116L18.4378 21.3235L18.1746 21.4771L18.3007 21.693ZM18.2861 21.7015L18.3925 21.9277L18.4025 21.923L18.4122 21.9174L18.2861 21.7015ZM14.0052 21.9622L13.9134 22.1948L13.918 22.1965L14.0052 21.9622ZM13.6549 21.8239L13.7467 21.5914L13.5106 21.4982L13.421 21.7356L13.6549 21.8239ZM13.5627 22.068L13.793 22.1659L13.7966 22.1563L13.5627 22.068ZM13.1537 22.8049L13.353 22.9561L13.3585 22.9483L13.1537 22.8049ZM12.991 23.0194L12.7918 22.8684L12.6369 23.0726L12.8449 23.2223L12.991 23.0194ZM15.7229 24.9862L15.5768 25.1891L15.7229 25.2942L15.8689 25.1891L15.7229 24.9862ZM18.8157 22.7602L18.9617 22.9631L19.1603 22.8202L19.0217 22.6186L18.8157 22.7602ZM18.801 22.7388L18.5934 22.8781L18.595 22.8804L18.801 22.7388ZM15.8638 9.72229L16.0157 9.52373L15.8632 9.40701L15.7111 9.52437L15.8638 9.72229ZM15.7307 9.825L15.8774 10.0276L15.8835 10.0229L15.7307 9.825ZM10.4808 11.3877L10.4601 11.637L10.4686 11.6374L10.4808 11.3877ZM10.3882 11.38L10.4089 11.1309L10.1388 11.1084L10.1382 11.3795L10.3882 11.38ZM10.3781 16.007L10.1281 16.0064L10.128 16.0451L10.1396 16.082L10.3781 16.007ZM12.1648 18.4737L12.0031 18.6645L12.007 18.6677L12.1648 18.4737ZM12.4365 18.6947L12.2788 18.8887L12.2827 18.8918L12.4365 18.6947ZM19.648 18.3158L19.8142 18.5025L19.8177 18.4994L19.648 18.3158ZM19.9021 18.0809L20.072 18.2648L20.081 18.2556L19.9021 18.0809ZM19.9577 18.024L20.1366 18.1987L20.5514 17.774H19.9577V18.024ZM18.2374 18.024V17.774H18.1193L18.0443 17.8652L18.2374 18.024ZM18.2079 18.0599L18.3887 18.2326L18.3951 18.2259L18.401 18.2187L18.2079 18.0599ZM17.2456 18.5394L17.2602 18.789L17.2675 18.7885L17.2748 18.7877L17.2456 18.5394ZM17.0582 18.5503V18.8003H17.0655L17.0728 18.7999L17.0582 18.5503ZM18.2079 15.8869L18.3969 15.7228L18.3887 15.7142L18.2079 15.8869ZM18.2388 15.9224L18.05 16.0863L18.1247 16.1724H18.2388V15.9224ZM21.6095 15.9224V16.1724H21.8595V15.9224H21.6095ZM21.6095 11.3591H21.8595V11.077L21.5795 11.1109L21.6095 11.3591ZM21.5145 11.3705L21.5345 11.6199L21.5445 11.6187L21.5145 11.3705ZM16.0125 9.83606L15.8606 10.0347L15.8662 10.0388L16.0125 9.83606ZM18.8407 5.31478L18.9592 5.09465L18.6758 4.94205L18.5981 5.25447L18.8407 5.31478ZM18.8145 5.42039L19.0553 5.48796L19.0571 5.48069L18.8145 5.42039ZM17.4789 8.11281L17.6731 8.27045L17.6784 8.26347L17.4789 8.11281ZM17.3852 8.22823L17.1911 8.07069L17.0238 8.27687L17.2396 8.43148L17.3852 8.22823ZM17.4358 8.26447L17.2902 8.46783L17.2972 8.47252L17.4358 8.26447ZM21.4898 9.26596L21.5154 9.51476L21.5227 9.5138L21.4898 9.26596ZM21.5739 9.25482L21.6068 9.50265L21.8442 9.47118L21.8229 9.23259L21.5739 9.25482ZM21.5705 9.21592L21.8196 9.19368L21.8185 9.18496L21.5705 9.21592ZM19.0584 5.43196L19.1831 5.21514L19.1769 5.21183L19.0584 5.43196ZM16.5702 4.76864L16.576 4.51864H16.5702V4.76864ZM10.4595 9.00938L10.2128 8.96841L10.2119 8.97444L10.4595 9.00938ZM10.4211 9.28103L10.1736 9.24609L10.1373 9.5032L10.3956 9.52972L10.4211 9.28103ZM10.4521 9.28421L10.4266 9.53304L10.4349 9.53361L10.4521 9.28421ZM16.7299 5.027L16.9686 5.10184L16.9705 5.09521L16.7299 5.027ZM16.8017 4.77401L17.0422 4.84223L17.1303 4.53157L16.8075 4.52408L16.8017 4.77401ZM16.5702 2.91666C20.2812 2.91666 23.3228 5.88887 23.4689 9.57334L23.9685 9.55352C23.8119 5.60448 20.5533 2.41666 16.5702 2.41666V2.91666ZM23.4688 9.56838L23.4745 9.85598L23.9744 9.84608L23.9687 9.55848L23.4688 9.56838ZM23.4744 9.85079L23.4736 10.7133L23.9736 10.7138L23.9744 9.85128L23.4744 9.85079ZM23.7233 10.9635L24.7305 10.9646L24.7311 10.4646L23.7239 10.4635L23.7233 10.9635ZM24.7308 10.9646C25.5355 10.9646 26.2079 11.5397 26.3547 12.2958L26.8456 12.2005C26.6537 11.2123 25.7778 10.4646 24.7308 10.4646V10.9646ZM26.3527 12.284L26.3784 12.4612L26.8732 12.3894L26.8476 12.2123L26.3527 12.284ZM26.3761 12.4373L26.3849 12.6192L26.8843 12.5953L26.8755 12.4133L26.3761 12.4373ZM26.3846 12.6072V16.1316H26.8846V12.6072H26.3846ZM26.3846 16.1316C26.3846 16.9819 25.7282 17.6866 24.8901 17.7665L24.9375 18.2643C26.0271 18.1604 26.8846 17.2448 26.8846 16.1316H26.3846ZM24.902 17.7657L24.7189 17.7744L24.7426 18.2738L24.9257 18.2651L24.902 17.7657ZM24.7308 17.7741L22.6777 17.774L22.6777 18.274L24.7308 18.2741L24.7308 17.7741ZM22.4698 17.8852L22.3282 18.0975L22.7441 18.375L22.8857 18.1628L22.4698 17.8852ZM22.3318 18.0921C21.8781 18.7354 21.3083 19.3432 20.6555 19.8908L20.9768 20.2739C21.6588 19.7018 22.259 19.0628 22.7404 18.3804L22.3318 18.0921ZM20.6592 19.8878L20.3188 20.1623L20.6327 20.5515L20.9731 20.277L20.6592 19.8878ZM20.3267 20.1562L20.0879 20.3334L20.386 20.7349L20.6248 20.5576L20.3267 20.1562ZM19.9872 20.5447L19.9899 20.6078L20.4894 20.5866L20.4867 20.5236L19.9872 20.5447ZM19.9904 20.6175C20.0749 21.6568 20.7867 22.4802 21.7835 22.659L21.8718 22.1669C21.1133 22.0308 20.5561 21.4057 20.4888 20.577L19.9904 20.6175ZM21.7946 22.6607L21.9732 22.6846L22.0393 22.189L21.8607 22.1651L21.7946 22.6607ZM21.9954 22.6865L22.1799 22.6946L22.2018 22.1951L22.0172 22.187L21.9954 22.6865ZM22.1909 22.6948C24.5279 22.6948 26.245 23.0943 27.3756 23.9732C28.4921 24.8409 29.0833 26.2142 29.0833 28.2823H29.5833C29.5833 26.1162 28.9593 24.5708 27.6825 23.5784C26.4199 22.597 24.5657 22.1948 22.1909 22.1948V22.6948ZM29.0833 28.2823C29.0833 28.7233 28.7233 29.0833 28.276 29.0833V29.5833C28.9966 29.5833 29.5833 29.0023 29.5833 28.2823H29.0833ZM28.276 29.0833C27.829 29.0833 27.4689 28.7233 27.4689 28.2823H26.9689C26.9689 29.0022 27.5556 29.5833 28.276 29.5833V29.0833ZM27.4689 28.2823C27.4689 26.7656 27.1163 25.7294 26.2176 25.0974C25.3463 24.4846 24.0157 24.2965 22.1909 24.2965V24.7965C24.0164 24.7965 25.1998 24.9929 25.9299 25.5063C26.6326 26.0005 26.9689 26.8323 26.9689 28.2823H27.4689ZM22.1909 24.2965C21.6604 24.2965 21.145 24.1881 20.6694 23.982L20.4706 24.4408C21.0088 24.674 21.5919 24.7965 22.1909 24.7965V24.2965ZM20.6787 23.9863L20.5775 23.9374L20.3601 24.3877L20.4613 24.4366L20.6787 23.9863ZM20.3227 23.9597L16.215 26.9182L16.5072 27.324L20.6149 24.3654L20.3227 23.9597ZM16.2109 26.9213C15.9927 27.0853 15.7079 27.1262 15.4559 27.038L15.2907 27.5099C15.6977 27.6524 16.1576 27.5868 16.5113 27.3209L16.2109 26.9213ZM15.4726 27.0445L15.3344 26.9847L15.1359 27.4436L15.2741 27.5034L15.4726 27.0445ZM15.3663 27.0013L15.2356 26.9208L14.9733 27.3465L15.104 27.427L15.3663 27.0013ZM15.2505 26.9308L11.3246 24.1037L11.0324 24.5095L14.9583 27.3365L15.2505 26.9308ZM11.0935 24.0715L10.9441 24.1255L11.1141 24.5957L11.2635 24.5417L11.0935 24.0715ZM10.9543 24.1221C10.7708 24.1796 10.5828 24.2232 10.3915 24.2524L10.467 24.7467C10.6834 24.7136 10.8961 24.6643 11.1038 24.5992L10.9543 24.1221ZM10.4009 24.2511L10.0928 24.2863L10.1495 24.7831L10.4576 24.7479L10.4009 24.2511ZM10.1117 24.2849L9.79955 24.2967L9.81844 24.7963L10.1306 24.7845L10.1117 24.2849ZM9.80899 24.2965C7.98423 24.2965 6.6537 24.4846 5.78244 25.0974C4.88375 25.7294 4.53113 26.7656 4.53113 28.2823H5.03113C5.03113 26.8323 5.36736 26.0006 6.07007 25.5064C6.8002 24.9929 7.98361 24.7965 9.80899 24.7965V24.2965ZM4.53113 28.2823C4.53113 28.7233 4.17106 29.0833 3.724 29.0833V29.5833C4.44443 29.5833 5.03113 29.0022 5.03113 28.2823H4.53113ZM3.724 29.0833C3.27679 29.0833 2.91666 28.7232 2.91666 28.2823H2.41666C2.41666 29.0023 3.00352 29.5833 3.724 29.5833V29.0833ZM2.91666 28.2823C2.91666 26.2143 3.5079 24.841 4.62435 23.9732C5.75499 23.0943 7.47203 22.6948 9.80899 22.6948V22.1948C7.43424 22.1948 5.5801 22.597 4.31751 23.5784C3.04072 24.5708 2.41666 26.1163 2.41666 28.2823H2.91666ZM9.80899 22.6948C10.8947 22.6948 11.8124 21.9034 11.9878 20.8593L11.4947 20.7765C11.3596 21.5809 10.6493 22.1948 9.80899 22.1948V22.6948ZM11.9896 20.8471L11.9932 20.8161L11.4966 20.7577L11.493 20.7887L11.9896 20.8471ZM11.8851 20.5799L11.653 20.4227L11.3726 20.8367L11.6048 20.9939L11.8851 20.5799ZM11.6577 20.426C10.8331 19.8396 10.1187 19.1564 9.57014 18.4153L9.16825 18.7127C9.7521 19.5016 10.5062 20.2206 11.3679 20.8335L11.6577 20.426ZM9.57399 18.4206L9.3418 18.0889L8.9322 18.3757L9.1644 18.7074L9.57399 18.4206ZM9.34944 18.1005L9.22019 17.8922L8.79532 18.1558L8.92456 18.3641L9.34944 18.1005ZM9.00774 17.774L7.26917 17.7741L7.2692 18.2741L9.00777 18.274L9.00774 17.774ZM7.26918 17.7741C6.46449 17.7741 5.79204 17.1991 5.64523 16.443L5.1544 16.5383C5.34628 17.5265 6.22216 18.2741 7.26918 18.2741V17.7741ZM5.64723 16.4548L5.62156 16.2776L5.12673 16.3494L5.1524 16.5265L5.64723 16.4548ZM5.62386 16.3015L5.61512 16.1196L5.1157 16.1436L5.12444 16.3255L5.62386 16.3015ZM5.61541 16.1316V12.6072H5.11541V16.1316H5.61541ZM5.61541 12.6072C5.61541 11.7568 6.2717 11.0521 7.10989 10.9722L7.06242 10.4744C5.97276 10.5784 5.11541 11.494 5.11541 12.6072H5.61541ZM7.098 10.973L7.28103 10.9644L7.25734 10.4649L7.07431 10.4736L7.098 10.973ZM7.26946 10.9646L8.27566 10.9635L8.27511 10.4635L7.2689 10.4646L7.26946 10.9646ZM8.52539 10.7136L8.52575 9.85093L8.02575 9.85072L8.02539 10.7134L8.52539 10.7136ZM8.52575 9.85083C8.52575 6.22766 11.3268 3.22677 14.8711 2.93923L14.8307 2.44086C11.027 2.74945 8.02575 5.96692 8.02575 9.85083H8.52575ZM14.866 2.93959L15.1576 2.92194L15.1274 2.42285L14.8358 2.4405L14.866 2.93959ZM15.1475 2.92234L15.4347 2.91661L15.4247 2.41671L15.1375 2.42244L15.1475 2.92234ZM15.4297 2.91666H16.5702V2.41666H15.4297V2.91666ZM18.6247 21.866L18.537 21.6116L18.0643 21.7744L18.152 22.0289L18.6247 21.866ZM18.1746 21.4771L18.1601 21.4856L18.4122 21.9174L18.4267 21.9089L18.1746 21.4771ZM18.1798 21.4752C17.282 21.8972 16.4639 22.1242 15.9025 22.1242V22.6242C16.5709 22.6242 17.4671 22.3627 18.3925 21.9277L18.1798 21.4752ZM15.9025 22.1242C15.4238 22.1242 14.7914 21.9882 14.0925 21.7279L13.918 22.1965C14.6474 22.4681 15.3421 22.6242 15.9025 22.6242V22.1242ZM14.097 21.7297L13.7467 21.5914L13.5631 22.0565L13.9135 22.1948L14.097 21.7297ZM13.421 21.7356L13.3288 21.9797L13.7966 22.1563L13.8888 21.9123L13.421 21.7356ZM13.3327 21.9701C13.2293 22.2132 13.1006 22.4449 12.9489 22.6615L13.3585 22.9483C13.53 22.7034 13.6757 22.4412 13.7928 22.1658L13.3327 21.9701ZM12.9545 22.6539L12.7918 22.8684L13.1902 23.1705L13.3529 22.956L12.9545 22.6539ZM12.8449 23.2223L15.5768 25.1891L15.869 24.7833L13.1371 22.8165L12.8449 23.2223ZM15.8689 25.1891L18.9617 22.9631L18.6697 22.5573L15.5769 24.7833L15.8689 25.1891ZM19.0217 22.6186L19.007 22.5972L18.595 22.8804L18.6097 22.9018L19.0217 22.6186ZM19.0086 22.5994C18.8523 22.3667 18.7225 22.1178 18.6214 21.8571L18.1552 22.0378C18.2697 22.3331 18.4167 22.6148 18.5934 22.8781L19.0086 22.5994ZM15.7111 9.52437L15.578 9.62708L15.8835 10.0229L16.0166 9.92021L15.7111 9.52437ZM15.5841 9.62251C14.1166 10.6851 12.3283 11.2276 10.493 11.138L10.4686 11.6374C12.4186 11.7326 14.3187 11.1561 15.8774 10.0275L15.5841 9.62251ZM10.5015 11.1386L10.4089 11.1309L10.3675 11.6292L10.4601 11.6368L10.5015 11.1386ZM10.1382 11.3795L10.1281 16.0064L10.6281 16.0075L10.6382 11.3806L10.1382 11.3795ZM10.1396 16.082C10.433 17.0135 11.0984 17.8976 12.0031 18.6644L12.3264 18.283C11.4687 17.556 10.8731 16.7464 10.6165 15.9319L10.1396 16.082ZM12.007 18.6677L12.2788 18.8887L12.5943 18.5008L12.3225 18.2798L12.007 18.6677ZM12.2827 18.8918C12.9011 19.3746 13.5837 19.7795 14.2172 20.0645C14.8439 20.3465 15.4477 20.5227 15.9024 20.5227V20.0227C15.5531 20.0227 15.0263 19.8803 14.4224 19.6086C13.8252 19.3398 13.177 18.9557 12.5904 18.4977L12.2827 18.8918ZM15.9024 20.5227C16.3762 20.5227 17.0374 20.2942 17.7191 19.943C18.4108 19.5867 19.1589 19.0857 19.8142 18.5025L19.4818 18.129C18.859 18.6832 18.1459 19.1607 17.4902 19.4985C16.8244 19.8415 16.2519 20.0227 15.9024 20.0227V20.5227ZM19.8177 18.4994L20.0718 18.2645L19.7324 17.8973L19.4783 18.1322L19.8177 18.4994ZM20.081 18.2556L20.1366 18.1987L19.7789 17.8493L19.7233 17.9062L20.081 18.2556ZM19.9577 17.774H18.2374V18.274H19.9577V17.774ZM18.0443 17.8652L18.0148 17.9012L18.401 18.2187L18.4306 18.1828L18.0443 17.8652ZM18.0272 17.8872C17.8139 18.1104 17.5284 18.2545 17.2165 18.2911L17.2748 18.7877C17.703 18.7374 18.0955 18.5394 18.3887 18.2326L18.0272 17.8872ZM17.231 18.2898L17.0436 18.3008L17.0728 18.7999L17.2602 18.789L17.231 18.2898ZM17.0582 18.3003C16.3189 18.3003 15.722 17.7048 15.722 16.9735H15.222C15.222 17.9837 16.0455 18.8003 17.0582 18.8003V18.3003ZM15.722 16.9735C15.722 16.2418 16.3188 15.6463 17.0582 15.6463V15.1463C16.0453 15.1463 15.222 15.963 15.222 16.9735H15.722ZM17.0582 15.6463C17.4313 15.6463 17.7784 15.7991 18.0272 16.0596L18.3887 15.7142C18.0467 15.3561 17.5694 15.1463 17.0582 15.1463V15.6463ZM18.0192 16.0508L18.05 16.0863L18.4275 15.7585L18.3967 15.723L18.0192 16.0508ZM18.2388 16.1724H21.6095V15.6724H18.2388V16.1724ZM21.8595 15.9224V11.3591H21.3595V15.9224H21.8595ZM21.5795 11.1109L21.4845 11.1223L21.5445 11.6187L21.6395 11.6073L21.5795 11.1109ZM21.4946 11.1213C19.5909 11.2737 17.7001 10.746 16.1589 9.63336L15.8662 10.0388C17.5041 11.2212 19.513 11.7815 21.5345 11.6197L21.4946 11.1213ZM16.1644 9.6375L16.0157 9.52373L15.7119 9.92085L15.8606 10.0346L16.1644 9.6375ZM6.83003 13.6134V15.1242H7.33003V13.6134H6.83003ZM8.92385 15.1242V13.6134H8.42385V15.1242H8.92385ZM7.87694 16.1711C8.45513 16.1711 8.92385 15.7024 8.92385 15.1242H8.42385C8.42385 15.4262 8.17899 15.6711 7.87694 15.6711V16.1711ZM6.83003 15.1242C6.83003 15.7024 7.29875 16.1711 7.87694 16.1711V15.6711C7.57489 15.6711 7.33003 15.4262 7.33003 15.1242H6.83003ZM7.87694 12.5664C7.29875 12.5664 6.83003 13.0352 6.83003 13.6134H7.33003C7.33003 13.3113 7.57489 13.0664 7.87694 13.0664V12.5664ZM7.87694 13.0664C8.17899 13.0664 8.42385 13.3113 8.42385 13.6134H8.92385C8.92385 13.0352 8.45513 12.5664 7.87694 12.5664V13.0664ZM23.0758 13.612V15.1255H23.5758V13.612H23.0758ZM25.167 15.1255V13.612H24.667V15.1255H25.167ZM24.1214 16.1711C24.6989 16.1711 25.167 15.703 25.167 15.1255H24.667C24.667 15.4268 24.4227 15.6711 24.1214 15.6711V16.1711ZM23.0758 15.1255C23.0758 15.7029 23.5439 16.1711 24.1214 16.1711V15.6711C23.8201 15.6711 23.5758 15.4268 23.5758 15.1255H23.0758ZM24.1214 12.5664C23.5439 12.5664 23.0758 13.0346 23.0758 13.612H23.5758C23.5758 13.3107 23.8201 13.0664 24.1214 13.0664V12.5664ZM24.1214 13.0664C24.4227 13.0664 24.667 13.3107 24.667 13.612H25.167C25.167 13.0346 24.6989 12.5664 24.1214 12.5664V13.0664ZM18.5981 5.25447L18.5719 5.36008L19.0571 5.48069L19.0833 5.37509L18.5981 5.25447ZM18.5738 5.35284C18.3079 6.30037 17.8682 7.18237 17.2794 7.96215L17.6784 8.26347C18.3045 7.43434 18.7723 6.49604 19.0552 5.48793L18.5738 5.35284ZM17.2848 7.95527L17.1911 8.07069L17.5793 8.38578L17.673 8.27036L17.2848 7.95527ZM17.2396 8.43148L17.2902 8.46772L17.5814 8.06122L17.5308 8.02499L17.2396 8.43148ZM17.2972 8.47252C18.5366 9.2983 20.0285 9.66756 21.5154 9.51465L21.4643 9.01727C20.0928 9.15832 18.717 8.81766 17.5744 8.05642L17.2972 8.47252ZM21.5227 9.5138L21.6068 9.50265L21.5411 9.00699L21.457 9.01813L21.5227 9.5138ZM21.8229 9.23259L21.8195 9.19369L21.3215 9.23816L21.3249 9.27705L21.8229 9.23259ZM21.8185 9.18496C21.6096 7.51063 20.6192 6.04094 19.183 5.21523L18.9338 5.64869C20.2348 6.39668 21.133 7.7293 21.3224 9.24689L21.8185 9.18496ZM19.1769 5.21183L18.9592 5.09465L18.7222 5.53491L18.9399 5.65209L19.1769 5.21183ZM16.5702 4.51864H15.4298V5.01864H16.5702V4.51864ZM15.4298 4.51864C12.8162 4.51864 10.6325 6.44176 10.2129 8.96842L10.7061 9.05034C11.0868 6.75821 13.0675 5.01864 15.4298 5.01864V4.51864ZM10.2119 8.97444L10.1736 9.24609L10.6687 9.31597L10.707 9.04432L10.2119 8.97444ZM10.3956 9.52972L10.4266 9.5329L10.4776 9.03551L10.4467 9.03233L10.3956 9.52972ZM10.4349 9.53361C13.3891 9.73804 16.0971 7.88009 16.9685 5.10181L16.4914 4.95218C15.6896 7.50868 13.194 9.22334 10.4694 9.0348L10.4349 9.53361ZM16.9705 5.09521L17.0422 4.84223L16.5612 4.70579L16.4894 4.95878L16.9705 5.09521ZM16.8075 4.52408L16.576 4.5187L16.5644 5.01857L16.7959 5.02394L16.8075 4.52408Z" fill="white"/>
</svg>
