<svg width="24" height="24" viewBox="0 0 24 24" fill="none" xmlns="http://www.w3.org/2000/svg">
<path fill-rule="evenodd" clip-rule="evenodd" d="M4.56408 17.8406C4.74143 17.8406 4.93567 17.7886 5.13835 17.6586V8.54246C5.13835 8.04853 5.2228 7.89255 5.63661 7.64991L13.347 3.09185C13.3385 2.40728 12.9078 2 12.342 2C12.0718 2 11.7846 2.08666 11.4806 2.25997L4.5303 6.36742C3.62668 6.90468 3.5 7.10399 3.5 8.19584V16.3501C3.5 17.234 3.92226 17.8406 4.56408 17.8406ZM7.98435 19.8683C8.1617 19.8683 8.36438 19.8163 8.55862 19.6863V10.5615C8.55862 10.0589 8.63462 9.92894 9.05688 9.67764L16.7673 5.11958C16.7673 4.43501 16.3366 4.02773 15.7538 4.02773C15.4921 4.02773 15.2049 4.10572 14.9009 4.27903L7.94213 8.39515C7.0385 8.92374 6.91182 9.14038 6.91182 10.2236V18.3778C6.91182 19.2704 7.35941 19.8683 7.98435 19.8683ZM11.6157 22C11.9367 22 12.3336 21.87 12.7727 21.6101L19.3515 17.7279C20.2129 17.2166 20.5 16.7574 20.5 15.6915L20.4916 7.90121C20.4916 6.75737 20.0609 6.15078 19.343 6.15078C19.0221 6.15078 18.6421 6.28076 18.2114 6.53206L11.6242 10.4315C10.7375 10.9601 10.4757 11.4194 10.4757 12.4679V20.2582C10.4757 21.3761 10.8895 22 11.6157 22ZM12.19 19.9463C12.1393 19.9376 12.1309 19.9116 12.1309 19.851L12.1985 12.5373C12.1985 12.234 12.2829 12.078 12.5363 11.922L18.6843 8.21317C18.7096 8.19584 18.735 8.18717 18.7688 8.19584C18.8025 8.19584 18.8279 8.2305 18.8279 8.29116L18.7856 15.6308C18.7856 15.8908 18.7012 16.0901 18.4478 16.2374L12.2745 19.9289C12.2407 19.9463 12.2154 19.9549 12.19 19.9463Z" fill="#7B8E98"/>
</svg>
