<svg width="24" height="24" viewBox="0 0 24 24" fill="none" xmlns="http://www.w3.org/2000/svg">
<path fill-rule="evenodd" clip-rule="evenodd" d="M16.4192 21C17.0544 21 17.4083 20.5469 17.4083 19.8491V17.4929H17.8439C20.5481 17.4929 22 16.0066 22 13.3423V7.15056C22 4.48623 20.5481 3 17.8439 3H6.15608C3.45191 3 2 4.49529 2 7.15056V13.3423C2 15.9976 3.45191 17.4929 6.15608 17.4929H11.9819L15.1125 20.275C15.6661 20.7644 15.9746 21 16.4192 21ZM16.0472 19.3416L13.1434 16.4598C12.7985 16.1063 12.5445 16.0338 12.0363 16.0338H6.15608C4.33212 16.0338 3.46098 15.1004 3.46098 13.3333V7.15056C3.46098 5.3834 4.33212 4.45904 6.15608 4.45904H17.8439C19.677 4.45904 20.539 5.3834 20.539 7.15056V13.3333C20.539 15.1004 19.677 16.0338 17.8439 16.0338H16.7278C16.2378 16.0338 16.0472 16.2241 16.0472 16.7135V19.3416Z" fill="#7B8E98"/>
</svg>
