<svg width="24" height="24" viewBox="0 0 24 24" fill="none" xmlns="http://www.w3.org/2000/svg">
<path fill-rule="evenodd" clip-rule="evenodd" d="M15.5547 4.5C14.6746 4.5 13.9436 5.14019 13.8165 5.97246L13.282 6.49873C12.3518 7.41469 10.9818 7.96154 9.61719 7.96154H6.10156C5.3377 7.96154 4.68641 8.44388 4.44453 9.11538H4.34375C3.05141 9.11538 2 10.1506 2 11.4231C2 12.6955 3.05141 13.7308 4.34375 13.7308H4.44453C4.62137 14.2217 5.01703 14.6113 5.51562 14.7854V17.7692C5.51562 18.7236 6.30422 19.5 7.27348 19.5C8.2427 19.5 9.03125 18.7236 9.03125 17.7692V14.8846H9.61719C10.9817 14.8846 12.3517 15.4315 13.282 16.3474L13.8165 16.8737C13.9436 17.7059 14.6746 18.3462 15.5547 18.3462C16.5239 18.3462 17.3125 17.5697 17.3125 16.6154V6.23077C17.3125 5.27642 16.5239 4.5 15.5547 4.5ZM4.34375 12.5769C3.69758 12.5769 3.17188 12.0593 3.17188 11.4231C3.17188 10.7868 3.69758 10.2692 4.34375 10.2692V12.5769ZM7.27344 18.3462C7.59652 18.3462 7.85938 18.0873 7.85938 17.7692V14.8846H6.6875V17.7692C6.6875 18.0873 6.95035 18.3462 7.27344 18.3462ZM9.03125 13.7308H6.10156C5.77848 13.7308 5.51562 13.472 5.51562 13.1538V9.69231C5.51562 9.37419 5.77848 9.11538 6.10156 9.11538H9.03125V13.7308ZM10.1992 13.7569C11.5343 13.8764 12.807 14.4005 13.7969 15.2441V7.60204C12.807 8.44562 11.5343 8.96973 10.1993 9.08919L10.1992 13.7569ZM16.1406 16.6154C16.1406 16.9335 15.8778 17.1923 15.5547 17.1923H15.5547C15.2316 17.1923 14.9688 16.9335 14.9688 16.6154V6.23077C14.9688 5.91265 15.2316 5.65385 15.5547 5.65385C15.8778 5.65385 16.1406 5.91265 16.1406 6.23077V16.6154ZM20.6565 8.13054C20.4277 7.90527 20.0567 7.90527 19.8279 8.13054L18.656 9.28438C18.4271 9.50969 18.4271 9.87496 18.656 10.1003C18.8848 10.3256 19.2558 10.3255 19.4846 10.1003L20.6565 8.94642C20.8853 8.72112 20.8853 8.35585 20.6565 8.13054ZM19.6562 11.4231H21.4141C21.7377 11.4231 22 11.6814 22 12C22 12.3186 21.7377 12.5769 21.4141 12.5769H19.6562C19.3327 12.5769 19.0703 12.3186 19.0703 12C19.0703 11.6814 19.3327 11.4231 19.6562 11.4231ZM19.4846 13.8998L20.6565 15.0536C20.8854 15.2789 20.8854 15.6442 20.6565 15.8695C20.4277 16.0948 20.0567 16.0948 19.8279 15.8695L18.656 14.7157C18.4271 14.4903 18.4271 14.125 18.656 13.8998C18.8848 13.6745 19.2559 13.6745 19.4846 13.8998Z" fill="#7B8E98"/>
</svg>
