<svg width="24" height="24" viewBox="0 0 24 24" fill="none" xmlns="http://www.w3.org/2000/svg">
<path fill-rule="evenodd" clip-rule="evenodd" d="M21.8107 11.5398L20.1136 9.82596L20.7264 7.49311C20.8175 7.14619 20.6122 6.79061 20.2663 6.69612L17.9395 6.06045L17.3039 3.73374C17.2093 3.38776 16.8538 3.18245 16.5069 3.27358L14.1741 3.88647L12.4602 2.18929C12.2053 1.9369 11.7947 1.9369 11.5398 2.18929L9.82597 3.88647L7.49312 3.27362C7.14613 3.18249 6.79066 3.3878 6.69613 3.73378L6.06046 6.06049L3.73374 6.69616C3.38776 6.79069 3.18245 7.14627 3.27358 7.49315L3.88644 9.82599L2.18929 11.5398C1.9369 11.7947 1.9369 12.2053 2.18929 12.4601L3.88648 14.174L3.27362 16.5068C3.18249 16.8538 3.3878 17.2093 3.73378 17.3038L6.0605 17.9395L6.69617 20.2662C6.7907 20.6122 7.1462 20.8175 7.49316 20.7264L9.82601 20.1135L11.5399 21.8107C11.6673 21.9369 11.8337 22 12 22C12.1664 22 12.3328 21.9369 12.4602 21.8107L14.1741 20.1135L16.5069 20.7264C16.8539 20.8174 17.2094 20.6122 17.3039 20.2662L17.9396 17.9395L20.2663 17.3038C20.6123 17.2093 20.8176 16.8537 20.7264 16.5068L20.1136 14.174L21.8107 12.4601C22.0631 12.2053 22.0631 11.7947 21.8107 11.5398ZM18.9215 13.5189C18.7588 13.6833 18.6949 13.9215 18.7537 14.1452L19.2968 16.2128L17.2347 16.7762C17.0115 16.8371 16.8371 17.0115 16.7762 17.2347L16.2128 19.2968L14.1452 18.7537C13.9214 18.6949 13.6833 18.7587 13.5189 18.9215L12 20.4256L10.4811 18.9215C10.357 18.7987 10.1911 18.7322 10.0209 18.7322C9.9655 18.7322 9.90968 18.7393 9.85476 18.7537L7.78718 19.2968L7.22382 17.2347C7.16288 17.0116 6.98851 16.8372 6.76531 16.7762L4.7032 16.2129L5.24632 14.1453C5.30511 13.9215 5.24128 13.6834 5.07847 13.519L3.57437 12L5.07847 10.4811C5.24128 10.3167 5.30511 10.0785 5.24632 9.85474L4.7032 7.78709L6.76531 7.22373C6.98847 7.1628 7.16285 6.98842 7.22382 6.76522L7.78718 4.70311L9.85476 5.24624C10.0786 5.30506 10.3167 5.2412 10.4811 5.07838L12 3.57428L13.5189 5.07838C13.6834 5.24112 13.9214 5.3051 14.1453 5.24624L16.2129 4.70311L16.7762 6.76522C16.8371 6.98838 17.0115 7.16276 17.2347 7.22373L19.2968 7.78709L18.7537 9.85467C18.6949 10.0784 18.7588 10.3166 18.9216 10.481L20.4257 11.9999L18.9215 13.5189ZM9.38418 7.20424C8.18218 7.20424 7.20429 8.18213 7.20429 9.38412C7.20429 10.5861 8.18218 11.564 9.38418 11.564C10.5862 11.564 11.5641 10.5861 11.5641 9.38412C11.5641 8.18213 10.5862 7.20424 9.38418 7.20424ZM9.38418 10.2561C8.90339 10.2561 8.51222 9.86486 8.51222 9.38412C8.51222 8.90334 8.90339 8.51217 9.38418 8.51217C9.86496 8.51217 10.2561 8.90334 10.2561 9.38412C10.2561 9.8649 9.86496 10.2561 9.38418 10.2561ZM12.436 14.6158C12.436 13.4138 13.4139 12.436 14.6159 12.436C15.8179 12.436 16.7958 13.4138 16.7958 14.6158C16.7958 15.8178 15.8179 16.7957 14.6159 16.7957C13.4139 16.7957 12.436 15.8178 12.436 14.6158ZM13.7439 14.6158C13.7439 15.0966 14.1351 15.4878 14.6159 15.4878C15.0966 15.4878 15.4879 15.0967 15.4879 14.6158C15.4879 14.135 15.0967 13.7439 14.6159 13.7439C14.1351 13.7439 13.7439 14.135 13.7439 14.6158ZM14.5894 8.48572C14.8448 8.23033 15.2589 8.23033 15.5143 8.48572C15.7696 8.74111 15.7696 9.15518 15.5142 9.41057L9.4105 15.5142C9.28285 15.642 9.11543 15.7058 8.94812 15.7058C8.78082 15.7058 8.61343 15.6419 8.48574 15.5142C8.23035 15.2588 8.23035 14.8448 8.48574 14.5894L14.5894 8.48572Z" fill="#7B8E98"/>
</svg>
