<svg width="24" height="24" viewBox="0 0 24 24" fill="none" xmlns="http://www.w3.org/2000/svg">
<path fill-rule="evenodd" clip-rule="evenodd" d="M21.0741 7.88907C21.5906 7.88907 22 7.4584 22 6.93964C22 6.42088 21.6004 6 21.0741 6H2.92593C2.40936 6 2 6.42088 2 6.93964C2 7.4584 2.40936 7.88907 2.92593 7.88907H21.0741ZM17.078 12.8793C17.6043 12.8793 18.0039 12.4584 18.0039 11.9396C18.0039 11.4111 17.6043 11 17.078 11H2.92593C2.40936 11 2 11.4209 2 11.9396C2 12.4486 2.40936 12.8793 2.92593 12.8793H17.078ZM13.1306 17.8891C13.6472 17.8891 14.0565 17.4584 14.0565 16.9396C14.0565 16.4209 13.6472 16 13.1306 16H2.92593C2.40936 16 2 16.4209 2 16.9396C2 17.4584 2.40936 17.8891 2.92593 17.8891H13.1306Z" fill="#1A1A1A"/>
</svg>
