<svg width="48" height="48" viewBox="0 0 48 48" fill="none" xmlns="http://www.w3.org/2000/svg">
<path d="M16.4212 24.8418L12.6316 21.8944M12.6316 21.8944C12.6316 21.8944 8.69833 18.2653 7.15796 15.5786M12.6316 21.8944C10.2457 22.4558 4.96848 22.905 2.94743 20.2102M7.57913 8.8418C10.9476 6.31548 10.9476 0.841797 10.9476 0.841797M7.57913 8.8418C6.7369 9.6839 6.73647 13.8944 7.15796 15.5786M7.57913 8.8418C6.73698 8.98215 4.96848 8.50495 4.63164 5.47338M7.15796 15.5786C5.8948 15.719 2.86322 15.326 0.842163 12.6313" stroke="#1A1A1A" stroke-width="1.68421" stroke-linecap="round"/>
<path d="M30.3156 24.4207L34.4124 21.5251M34.4124 21.5251C34.4124 21.5251 38.6646 17.9596 40.3299 15.3201M34.4124 21.5251C36.9918 22.0766 42.6969 22.5179 44.8818 19.8704M39.8746 8.70145C36.233 6.21945 36.2331 0.841797 36.2331 0.841797M39.8746 8.70145C40.7851 9.52878 40.7855 13.6654 40.3299 15.3201M39.8746 8.70145C40.785 8.83934 42.6969 8.37051 43.061 5.39212M40.3299 15.3201C41.6954 15.458 44.9728 15.0719 47.1577 12.4244" stroke="#1A1A1A" stroke-width="1.68421" stroke-linecap="round"/>
<path d="M34.5265 30.3159C34.5265 26.5953 29.4367 23.5791 23.1581 23.5791C16.8795 23.5791 11.7897 26.5953 11.7897 30.3159" stroke="#1A1A1A" stroke-width="1.68421" stroke-linecap="round"/>
<path d="M20.2106 32.8424C20.2106 31.9122 19.0795 31.1582 17.6843 31.1582C16.289 31.1582 15.158 31.9122 15.158 32.8424" stroke="#1A1A1A" stroke-width="1.68421" stroke-linecap="round"/>
<path d="M32 32.8424C32 31.9122 30.8689 31.1582 29.4737 31.1582C28.0785 31.1582 26.9474 31.9122 26.9474 32.8424" stroke="#1A1A1A" stroke-width="1.68421" stroke-linecap="round"/>
<path d="M16.8421 44.6319C16.8421 46.0271 18.3502 47.1582 20.2106 47.1582C22.0709 47.1582 23.579 46.0271 23.579 44.6319L23.579 42.1056" stroke="#1A1A1A" stroke-width="1.68421" stroke-linecap="round"/>
<path d="M30.3158 44.6319C30.3158 46.0271 28.8077 47.1582 26.9474 47.1582C25.0871 47.1582 23.579 46.0271 23.579 44.6319L23.579 42.1056" stroke="#1A1A1A" stroke-width="1.68421" stroke-linecap="round"/>
<ellipse cx="23.5789" cy="39.9998" rx="2.52632" ry="2.10526" stroke="#1A1A1A" stroke-width="1.68421" stroke-linecap="round"/>
</svg>
