<svg width="213" height="80" viewBox="0 0 213 80" fill="none" xmlns="http://www.w3.org/2000/svg">
<path d="M22.9716 64.1451C25.8403 54.3094 39.1558 54.7468 39.6421 54.7661C39.4077 54.7517 36.2978 54.3762 41.1786 44.6149C46.2449 34.4824 49.9882 30.7378 57.929 27.3568C64.4081 24.8331 72.998 23.2078 79.2476 27.3568C81.6141 23.2343 83.3099 18.5178 87.3999 13.9588C92.4003 8.38514 96.0468 5.49225 103.081 2.92403C113.209 -0.774126 117.327 0.48471 127.336 2.36144C147.374 6.11856 154.644 19.8946 158.645 32.8358C162.158 32.4183 183.692 31.5834 181.188 49.1166C190.789 46.6119 199.138 52.0388 198.303 61.6403C197.312 65.687 214.167 58.7181 212.497 76.2513C209.389 81.6489 193.513 78.3386 152.801 79.1735C112.088 80.0084 25.059 77.9212 25.059 77.9212C8.50568 81.2685 -3.38102 77.2998 1.26406 70.8244C2.09872 66.2324 7.94311 54.961 22.9716 64.1451Z" fill="#FFF7CC"/>
<path d="M55.7318 37.8453C59.6281 34.6448 69.5079 32.8358 76.6047 37.8453M74.5174 62.4753C79.5269 50.369 107.496 42.4373 113.758 61.2229M147.99 34.9231C147.99 27.6872 141.978 12.7979 117.933 11.1281" stroke="#FED700" stroke-width="2.75797" stroke-linecap="round"/>
</svg>
