<svg width="175" height="60" viewBox="0 0 175 60" fill="none" xmlns="http://www.w3.org/2000/svg">
<path d="M106.599 56.9418C151.933 61.5591 167.184 57.7813 172.501 55.2628C177.818 52.7442 168.303 46.028 164.106 49.3861C164.945 41.8305 156.97 38.8922 150.673 44.349C155.711 33.4353 136.402 28.3982 130.525 37.6329C135.142 28.8179 127.587 11.188 112.895 21.2623C114.154 -8.5406 75.9564 -4.76281 69.24 20.4227C51.6103 -1.40468 28.1038 21.682 35.2395 33.4353C29.7828 26.7192 12.9924 25.4599 10.8936 47.2873C1.23901 39.7317 -11.3536 60.3381 19.7086 56.1023C32.0215 54.4233 79.3144 64.4975 106.599 56.9418Z" fill="#FFF7CC"/>
<path d="M40.2767 25.8796C44.3344 19.7231 54.8844 10.8522 64.6228 24.6203M58.7461 47.2873C57.9066 37.6328 73.018 28.8179 78.8946 40.9909C86.0305 25.8796 98.2035 36.7933 95.685 41.8304M114.154 27.1388C119.052 25.04 128.174 24.2005 125.488 37.6328" stroke="#FED700" stroke-width="2.75797" stroke-linecap="round"/>
</svg>
